<svg width="36" height="36" viewBox="0 0 36 36" fill="none" xmlns="http://www.w3.org/2000/svg">
<path fill-rule="evenodd" clip-rule="evenodd" d="M10.8196 0.687843C12.6768 0.602343 13.269 0.583344 18 0.583344C22.731 0.583344 23.3232 0.603927 25.1788 0.687843C27.0345 0.77176 28.3012 1.06784 29.4095 1.49693C30.5701 1.93551 31.623 2.62109 32.4938 3.50776C33.3805 4.37701 34.0645 5.42834 34.5015 6.59051C34.9322 7.69884 35.2267 8.96551 35.3122 10.818C35.3977 12.6784 35.4167 13.2706 35.4167 18C35.4167 22.731 35.3961 23.3232 35.3122 25.1804C35.2282 27.0329 34.9322 28.2996 34.5015 29.4079C34.0645 30.5702 33.3794 31.6233 32.4938 32.4938C31.623 33.3805 30.5701 34.0645 29.4095 34.5015C28.3012 34.9322 27.0345 35.2267 25.182 35.3122C23.3232 35.3977 22.731 35.4167 18 35.4167C13.269 35.4167 12.6768 35.3961 10.8196 35.3122C8.96708 35.2283 7.70042 34.9322 6.59208 34.5015C5.42979 34.0644 4.37672 33.3793 3.50617 32.4938C2.6201 31.6241 1.93441 30.5715 1.49692 29.4095C1.06783 28.3012 0.773333 27.0345 0.687833 25.182C0.602333 23.3216 0.583333 22.7294 0.583333 18C0.583333 13.269 0.603916 12.6768 0.687833 10.8212C0.77175 8.96551 1.06783 7.69884 1.49692 6.59051C1.93506 5.42847 2.62127 4.37592 3.50775 3.50618C4.37706 2.6203 5.42908 1.93463 6.5905 1.49693C7.69883 1.06784 8.9655 0.773343 10.818 0.687843H10.8196ZM25.0379 3.82284C23.2012 3.73893 22.6502 3.72151 18 3.72151C13.3497 3.72151 12.7987 3.73893 10.9621 3.82284C9.26317 3.90043 8.34167 4.18384 7.72733 4.42293C6.91508 4.73959 6.334 5.11484 5.72442 5.72443C5.14657 6.28659 4.70187 6.97096 4.42292 7.72734C4.18383 8.34168 3.90042 9.26318 3.82283 10.9621C3.73892 12.7988 3.7215 13.3498 3.7215 18C3.7215 22.6503 3.73892 23.2013 3.82283 25.0379C3.90042 26.7368 4.18383 27.6583 4.42292 28.2727C4.70158 29.0279 5.1465 29.7135 5.72442 30.2756C6.2865 30.8535 6.97208 31.2984 7.72733 31.5771C8.34167 31.8162 9.26317 32.0996 10.9621 32.1772C12.7987 32.2611 13.3482 32.2785 18 32.2785C22.6518 32.2785 23.2012 32.2611 25.0379 32.1772C26.7368 32.0996 27.6583 31.8162 28.2727 31.5771C29.0849 31.2604 29.666 30.8852 30.2756 30.2756C30.8535 29.7135 31.2984 29.0279 31.5771 28.2727C31.8162 27.6583 32.0996 26.7368 32.1772 25.0379C32.2611 23.2013 32.2785 22.6503 32.2785 18C32.2785 13.3498 32.2611 12.7988 32.1772 10.9621C32.0996 9.26318 31.8162 8.34168 31.5771 7.72734C31.2604 6.91509 30.8852 6.33401 30.2756 5.72443C29.7134 5.14662 29.029 4.70193 28.2727 4.42293C27.6583 4.18384 26.7368 3.90043 25.0379 3.82284ZM15.7754 23.3691C17.0178 23.8863 18.4012 23.9561 19.6893 23.5666C20.9774 23.1771 22.0904 22.3525 22.838 21.2336C23.5857 20.1147 23.9218 18.7709 23.7887 17.4318C23.6557 16.0926 23.0619 14.8412 22.1087 13.8913C21.5011 13.284 20.7664 12.819 19.9575 12.5298C19.1486 12.2406 18.2857 12.1343 17.4308 12.2186C16.5759 12.303 15.7503 12.5758 15.0135 13.0175C14.2767 13.4591 13.647 14.0587 13.1697 14.7729C12.6924 15.4872 12.3795 16.2984 12.2533 17.1481C12.1272 17.9978 12.191 18.865 12.4402 19.6871C12.6894 20.5092 13.1178 21.2658 13.6945 21.9025C14.2712 22.5392 14.9819 23.04 15.7754 23.3691ZM11.6698 11.6698C12.5011 10.8386 13.488 10.1791 14.5741 9.72925C15.6603 9.27936 16.8244 9.0478 18 9.0478C19.1756 9.0478 20.3397 9.27936 21.4259 9.72925C22.512 10.1791 23.4989 10.8386 24.3302 11.6698C25.1615 12.5011 25.8209 13.488 26.2708 14.5741C26.7207 15.6603 26.9522 16.8244 26.9522 18C26.9522 19.1756 26.7207 20.3397 26.2708 21.4259C25.8209 22.512 25.1615 23.4989 24.3302 24.3302C22.6513 26.009 20.3743 26.9522 18 26.9522C15.6257 26.9522 13.3487 26.009 11.6698 24.3302C9.99097 22.6513 9.04779 20.3743 9.04779 18C9.04779 15.6257 9.99097 13.3487 11.6698 11.6698ZM28.9377 10.381C29.1437 10.1867 29.3086 9.953 29.4226 9.6938C29.5367 9.4346 29.5976 9.15514 29.6017 8.87198C29.6059 8.58882 29.5531 8.30771 29.4467 8.04529C29.3402 7.78287 29.1822 7.54448 28.9819 7.34424C28.7817 7.14399 28.5433 6.98596 28.2809 6.8795C28.0185 6.77303 27.7374 6.7203 27.4542 6.72443C27.171 6.72856 26.8916 6.78946 26.6324 6.90353C26.3732 7.0176 26.1395 7.18251 25.9452 7.38851C25.5672 7.78914 25.3603 8.32128 25.3684 8.87198C25.3764 9.42268 25.5987 9.94857 25.9882 10.338C26.3776 10.7275 26.9035 10.9498 27.4542 10.9578C28.0049 10.9658 28.537 10.7589 28.9377 10.381Z" fill="white"/>
</svg>
