<svg width="34" height="35" viewBox="0 0 34 35" fill="none" xmlns="http://www.w3.org/2000/svg">
<path fill-rule="evenodd" clip-rule="evenodd" d="M34 17.4691C34 27.1164 26.3883 34.9383 17 34.9383C7.61175 34.9383 0 27.1164 0 17.4691C0 7.8218 7.61175 0 17 0C26.3883 0 34 7.8218 34 17.4691ZM17.6092 12.8966C15.9559 13.6026 12.6508 15.0657 7.69534 17.2842C6.89067 17.6132 6.4685 17.935 6.43025 18.2494C6.36508 18.7822 7.01392 18.9919 7.89508 19.2757C8.0155 19.315 8.14017 19.3543 8.26767 19.398C9.13609 19.6877 10.3034 20.0269 10.9098 20.04C11.4608 20.0516 12.0757 19.8187 12.7543 19.3412C17.3839 16.1284 19.7738 14.5052 19.924 14.4703C20.0303 14.4455 20.1776 14.4135 20.2768 14.5052C20.3759 14.5955 20.366 14.7672 20.3561 14.8138C20.2909 15.0948 17.7494 17.5244 16.4319 18.7822C16.0211 19.1738 15.7307 19.4519 15.6712 19.5159C15.538 19.6571 15.402 19.7925 15.2717 19.9221C14.4642 20.7198 13.8607 21.3196 15.3057 22.2979C15.9998 22.7681 16.5552 23.1568 17.1091 23.544C17.714 23.9676 18.3175 24.3898 19.0995 24.9168C19.2978 25.0507 19.4877 25.189 19.6733 25.3244C20.3773 25.8412 21.0106 26.3041 21.7926 26.2313C22.2459 26.1877 22.7163 25.7495 22.9543 24.4408C23.5167 21.3458 24.6245 14.6435 24.8809 11.8805C24.8965 11.6511 24.887 11.4206 24.8526 11.1933C24.832 11.0098 24.745 10.8409 24.6089 10.7202C24.4063 10.5499 24.0918 10.5135 23.9502 10.5164C23.3113 10.5281 22.3309 10.8789 17.6092 12.8966Z" fill="white"/>
</svg>
