<svg width="52" height="36" viewBox="0 0 52 36" fill="none" xmlns="http://www.w3.org/2000/svg">
<path d="M50.9168 6.09852C50.6224 5.04819 50.0488 4.09727 49.2571 3.34686C48.4431 2.57336 47.4454 2.02007 46.3581 1.73919C42.2891 0.666689 25.9871 0.666689 25.9871 0.666689C19.191 0.589366 12.3965 0.929451 5.64212 1.68502C4.55486 1.98665 3.559 2.55231 2.74312 3.33169C1.94145 4.10302 1.36078 5.05419 1.05745 6.09636C0.328785 10.0218 -0.0252508 14.0076 0.000116527 18C-0.0258835 21.9889 0.327283 25.9734 1.05745 29.9037C1.35428 30.9415 1.93278 31.8884 2.73662 32.6532C3.54045 33.418 4.54145 33.9705 5.64212 34.263C9.76528 35.3334 25.9871 35.3334 25.9871 35.3334C32.7919 35.4108 39.595 35.0707 46.3581 34.315C47.4454 34.0341 48.4431 33.4808 49.2571 32.7074C50.0588 31.9425 50.6286 30.9914 50.9146 29.9557C51.6623 26.0318 52.0259 22.0443 52.0001 18.0499C52.0564 14.0385 51.6933 10.0322 50.9168 6.09636V6.09852ZM20.8045 25.4187V10.5835L34.3678 18.0022L20.8045 25.4187Z" fill="white"/>
</svg>
